<?xml version="1.0" standalone="no"?>
<!DOCTYPE svg PUBLIC "-//W3C//DTD SVG 20010904//EN"
 "http://www.w3.org/TR/2001/REC-SVG-20010904/DTD/svg10.dtd">
<svg version="1.0" xmlns="http://www.w3.org/2000/svg"
 width="512.000000pt" height="512.000000pt" viewBox="0 0 512.000000 512.000000"
 preserveAspectRatio="xMidYMid meet">
<metadata>
Created by potrace 1.14, written by Peter Selinger 2001-2017
</metadata>
<g transform="translate(0.000000,512.000000) scale(0.100000,-0.100000)"
fill="#000000" stroke="none">
<path d="M308 5101 c-124 -40 -208 -113 -266 -230 l-37 -75 -2 -2210 c-2
-1849 -1 -2219 11 -2262 33 -126 116 -225 236 -283 l75 -36 2190 -3 c1582 -2
2208 0 2255 8 148 25 270 130 329 282 15 39 16 230 16 2273 l0 2230 -37 75
c-47 96 -111 160 -208 208 l-75 37 -2215 2 c-2120 2 -2217 1 -2272 -16z"/>
</g>
</svg>
